<svg width="31" height="32" viewBox="0 0 31 32" fill="none" xmlns="http://www.w3.org/2000/svg">
<path d="M26.3039 0.171387H4.63508C2.07065 0.171387 -0.00823975 2.25027 -0.00823975 4.81471V26.4836C-0.00823975 29.048 2.07065 31.1269 4.63508 31.1269H26.3039C28.8684 31.1269 30.9472 29.048 30.9472 26.4836V4.81471C30.9472 2.25027 28.8684 0.171387 26.3039 0.171387Z" fill="white"/>
<path d="M21.4908 20.1231L22.18 15.649H17.8874V12.747C17.8874 11.5257 18.4859 10.3286 20.4085 10.3286H22.3614V6.51958C22.3614 6.51958 20.5899 6.21729 18.897 6.21729C15.3601 6.21729 13.0506 8.35757 13.0506 12.2391V15.649H9.12067V20.1231H13.0506V31.1268H17.8874V20.1231H21.4908Z" fill="#1a1a1a"/>
</svg>
