<svg width="32" height="33" viewBox="0 0 32 33" fill="none" xmlns="http://www.w3.org/2000/svg">
<path d="M15.9924 0.64917C11.6472 0.64917 11.1019 0.66817 9.39525 0.745837C7.69196 0.823837 6.52933 1.0935 5.51202 1.48917C4.45972 1.89784 3.56708 2.44451 2.67777 3.33417C1.7878 4.22351 1.24115 5.11618 0.831158 6.16818C0.434503 7.18585 0.164511 8.34885 0.0878465 10.0515C0.0115154 11.7582 -0.00848389 12.3039 -0.00848389 16.6492C-0.00848389 20.9945 0.0108492 21.5382 0.0881803 23.2449C0.166511 24.9482 0.43617 26.1109 0.831492 27.1282C1.24048 28.1805 1.78713 29.0732 2.67677 29.9625C3.56575 30.8525 4.45839 31.4005 5.51002 31.8092C6.52799 32.2049 7.69096 32.4745 9.39391 32.5525C11.1005 32.6302 11.6455 32.6492 15.9904 32.6492C20.3359 32.6492 20.8796 32.6302 22.5862 32.5525C24.2895 32.4745 25.4534 32.2049 26.4714 31.8092C27.5234 31.4005 28.4147 30.8525 29.3037 29.9625C30.1936 29.0732 30.7403 28.1805 31.1503 27.1285C31.5436 26.1109 31.8136 24.9479 31.8936 23.2452C31.9703 21.5385 31.9903 20.9945 31.9903 16.6492C31.9903 12.3039 31.9703 11.7585 31.8936 10.0519C31.8136 8.34851 31.5436 7.18585 31.1503 6.16851C30.7403 5.11618 30.1936 4.22351 29.3037 3.33417C28.4137 2.44417 27.5237 1.89751 26.4704 1.48917C25.4504 1.0935 24.2871 0.823837 22.5839 0.745837C20.8772 0.66817 20.3339 0.64917 15.9874 0.64917H15.9924ZM14.5571 3.53251C14.9831 3.53184 15.4584 3.53251 15.9924 3.53251C20.2643 3.53251 20.7706 3.54784 22.4575 3.62451C24.0175 3.69584 24.8641 3.95651 25.4281 4.17551C26.1748 4.46551 26.7071 4.81218 27.2667 5.37218C27.8267 5.93218 28.1734 6.46551 28.464 7.21218C28.683 7.77551 28.944 8.62218 29.015 10.1822C29.0917 11.8689 29.1083 12.3755 29.1083 16.6455C29.1083 20.9155 29.0917 21.4222 29.015 23.1089C28.9437 24.6689 28.683 25.5155 28.464 26.0789C28.174 26.8255 27.8267 27.3572 27.2667 27.9169C26.7067 28.4769 26.1751 28.8235 25.4281 29.1135C24.8648 29.3335 24.0175 29.5935 22.4575 29.6649C20.7709 29.7415 20.2643 29.7582 15.9924 29.7582C11.7202 29.7582 11.2139 29.7415 9.52724 29.6649C7.96729 29.5929 7.12064 29.3322 6.55633 29.1132C5.80968 28.8232 5.27636 28.4765 4.71638 27.9165C4.1564 27.3565 3.80974 26.8245 3.51908 26.0775C3.30009 25.5142 3.03909 24.6675 2.9681 23.1075C2.89143 21.4209 2.8761 20.9142 2.8761 16.6415C2.8761 12.3689 2.89143 11.8649 2.9681 10.1782C3.03943 8.61818 3.30009 7.77151 3.51908 7.20751C3.80907 6.46084 4.1564 5.92751 4.71638 5.36751C5.27636 4.80751 5.80968 4.46084 6.55633 4.17017C7.12031 3.95017 7.96729 3.69017 9.52724 3.61851C11.0032 3.55184 11.5752 3.53184 14.5571 3.52851V3.53251ZM24.5328 6.18918C23.4728 6.18918 22.6129 7.04818 22.6129 8.10851C22.6129 9.16852 23.4728 10.0285 24.5328 10.0285C25.5928 10.0285 26.4528 9.16852 26.4528 8.10851C26.4528 7.04851 25.5928 6.18851 24.5328 6.18851V6.18918ZM15.9924 8.43251C11.4549 8.43251 7.77596 12.1115 7.77596 16.6492C7.77596 21.1869 11.4549 24.8642 15.9924 24.8642C20.5299 24.8642 24.2075 21.1869 24.2075 16.6492C24.2075 12.1115 20.5296 8.43251 15.9921 8.43251H15.9924ZM15.9924 11.3159C18.9376 11.3159 21.3256 13.7035 21.3256 16.6492C21.3256 19.5945 18.9376 21.9825 15.9924 21.9825C13.0468 21.9825 10.6592 19.5945 10.6592 16.6492C10.6592 13.7035 13.0468 11.3159 15.9924 11.3159V11.3159Z" fill="white"/>
</svg>
